<svg width="500" height="500" viewBox="0 0 500 500" fill="none" xmlns="http://www.w3.org/2000/svg">
<g id="Frame 8" clip-path="url(#clip0_53_183)">
<path id="icon" d="M96.25 377.5C117.5 361.25 141.25 348.438 167.5 339.062C193.75 329.688 221.25 325 250 325C278.75 325 306.25 329.688 332.5 339.062C358.75 348.438 382.5 361.25 403.75 377.5C418.333 360.417 429.688 341.042 437.813 319.375C445.938 297.708 450 274.583 450 250C450 194.583 430.521 147.396 391.562 108.438C352.604 69.4792 305.417 50 250 50C194.583 50 147.396 69.4792 108.438 108.438C69.4792 147.396 50 194.583 50 250C50 274.583 54.0625 297.708 62.1875 319.375C70.3125 341.042 81.6667 360.417 96.25 377.5ZM250 275C225.417 275 204.688 266.562 187.812 249.688C170.938 232.812 162.5 212.083 162.5 187.5C162.5 162.917 170.938 142.188 187.812 125.313C204.688 108.438 225.417 100 250 100C274.583 100 295.312 108.438 312.188 125.313C329.062 142.188 337.5 162.917 337.5 187.5C337.5 212.083 329.062 232.812 312.188 249.688C295.312 266.562 274.583 275 250 275ZM250 500C215.417 500 182.917 493.438 152.5 480.312C122.083 467.187 95.625 449.375 73.125 426.875C50.625 404.375 32.8125 377.917 19.6875 347.5C6.5625 317.083 0 284.583 0 250C0 215.417 6.5625 182.917 19.6875 152.5C32.8125 122.083 50.625 95.625 73.125 73.125C95.625 50.625 122.083 32.8125 152.5 19.6875C182.917 6.5625 215.417 0 250 0C284.583 0 317.083 6.5625 347.5 19.6875C377.917 32.8125 404.375 50.625 426.875 73.125C449.375 95.625 467.187 122.083 480.312 152.5C493.438 182.917 500 215.417 500 250C500 284.583 493.438 317.083 480.312 347.5C467.187 377.917 449.375 404.375 426.875 426.875C404.375 449.375 377.917 467.187 347.5 480.312C317.083 493.438 284.583 500 250 500Z" fill="black"/>
</g>
<defs>
<clipPath id="clip0_53_183">
<rect width="500" height="500" fill="white"/>
</clipPath>
</defs>
</svg>
