<svg width="500" height="500" viewBox="0 0 500 500" fill="none" xmlns="http://www.w3.org/2000/svg">
<rect width="500" height="500" fill="white"/>
<path d="M379.979 381.87C384.371 378.522 385.218 372.247 381.87 367.854C378.522 363.462 372.247 362.616 367.854 365.964L379.979 381.87ZM250.167 416.833V426.833C250.221 426.833 250.276 426.833 250.33 426.832L250.167 416.833ZM21 250.167L12.1884 245.438C10.6521 248.302 10.6026 251.733 12.0557 254.639L21 250.167ZM132.486 134.364C136.875 131.013 137.716 124.737 134.364 120.348C131.013 115.958 124.737 115.117 120.348 118.469L132.486 134.364ZM204.138 78.7632C198.76 80.0219 195.421 85.4016 196.68 90.7791C197.939 96.1566 203.318 99.4955 208.696 98.2368L204.138 78.7632ZM250.167 83.5L250.143 93.5C250.151 93.5 250.159 93.5 250.167 93.5L250.167 83.5ZM479.333 250.167L488.152 254.881C489.682 252.02 489.728 248.596 488.278 245.695L479.333 250.167ZM426.682 310.186C423.126 314.412 423.669 320.721 427.895 324.277C432.121 327.832 438.429 327.289 441.985 323.063L426.682 310.186ZM28.0711 13.9289C24.1658 10.0237 17.8342 10.0237 13.9289 13.9289C10.0237 17.8342 10.0237 24.1658 13.9289 28.0711L28.0711 13.9289ZM472.262 486.404C476.167 490.31 482.499 490.31 486.404 486.404C490.31 482.499 490.31 476.167 486.404 472.262L472.262 486.404ZM367.854 365.964C333.939 391.816 292.642 406.138 250.003 406.835L250.33 426.832C297.237 426.065 342.669 410.309 379.979 381.87L367.854 365.964ZM250.167 406.833C181.245 406.833 126.414 367.431 88.1912 326.661C69.1712 306.373 54.5575 286.046 44.6999 270.783C39.7773 263.161 36.0571 256.827 33.5813 252.426C32.3438 250.226 31.4184 248.51 30.8103 247.361C30.5062 246.787 30.2816 246.354 30.137 246.073C30.0647 245.932 30.0125 245.829 29.9803 245.766C29.9642 245.734 29.9532 245.712 29.9472 245.7C29.9442 245.694 29.9424 245.691 29.9419 245.69C29.9417 245.689 29.9423 245.691 29.9422 245.69C29.9431 245.692 29.9443 245.695 21 250.167C12.0557 254.639 12.0576 254.642 12.0597 254.647C12.0609 254.649 12.0634 254.654 12.0657 254.659C12.0703 254.668 12.0762 254.68 12.0833 254.694C12.0976 254.722 12.1171 254.761 12.1416 254.809C12.1907 254.906 12.2602 255.042 12.35 255.217C12.5297 255.567 12.7908 256.069 13.1327 256.716C13.8165 258.008 14.8238 259.873 16.1498 262.231C18.801 266.944 22.7305 273.631 27.8991 281.634C38.2238 297.62 53.5579 318.961 73.6005 340.339C113.503 382.902 173.255 426.833 250.167 426.833V406.833ZM29.8116 254.895C55.0517 207.858 90.0592 166.762 132.486 134.364L120.348 118.469C75.6547 152.597 38.777 195.888 12.1884 245.438L29.8116 254.895ZM208.696 98.2368C222.281 95.0568 236.19 93.4672 250.143 93.5L250.19 73.5C234.687 73.4636 219.233 75.2298 204.138 78.7632L208.696 98.2368ZM250.167 93.5C319.088 93.5 373.92 132.902 412.142 173.673C431.162 193.961 445.776 214.287 455.633 229.55C460.556 237.172 464.276 243.506 466.752 247.908C467.989 250.108 468.915 251.823 469.523 252.972C469.827 253.547 470.052 253.98 470.196 254.261C470.269 254.401 470.321 254.504 470.353 254.567C470.369 254.599 470.38 254.621 470.386 254.633C470.389 254.639 470.391 254.642 470.391 254.643C470.392 254.644 470.391 254.643 470.391 254.643C470.39 254.641 470.389 254.639 479.333 250.167C488.278 245.695 488.276 245.691 488.274 245.686C488.272 245.684 488.27 245.679 488.268 245.675C488.263 245.665 488.257 245.654 488.25 245.64C488.236 245.611 488.216 245.573 488.192 245.524C488.143 245.427 488.073 245.291 487.983 245.116C487.804 244.767 487.543 244.264 487.201 243.618C486.517 242.326 485.509 240.46 484.184 238.103C481.532 233.389 477.603 226.703 472.434 218.7C462.11 202.713 446.775 181.373 426.733 159.994C386.83 117.431 327.078 73.5 250.167 73.5V93.5ZM470.514 245.453C458.196 268.497 443.506 290.193 426.682 310.186L441.985 323.063C459.705 302.004 475.178 279.153 488.152 254.881L470.514 245.453ZM250 302.5C221.005 302.5 197.5 278.995 197.5 250H177.5C177.5 290.041 209.959 322.5 250 322.5V302.5ZM197.5 250C197.5 235.5 203.365 222.388 212.877 212.877L198.735 198.735C185.626 211.844 177.5 229.982 177.5 250H197.5ZM13.9289 28.0711L198.735 212.877L212.877 198.735L28.0711 13.9289L13.9289 28.0711ZM198.735 212.877L287.123 301.265L301.265 287.123L212.877 198.735L198.735 212.877ZM287.123 301.265L472.262 486.404L486.404 472.262L301.265 287.123L287.123 301.265ZM287.123 287.123C277.612 296.635 264.5 302.5 250 302.5V322.5C270.018 322.5 288.156 314.374 301.265 301.265L287.123 287.123Z" fill="#1E1E1E"/>
</svg>
